<svg width="22" height="22" viewBox="0 0 22 22" fill="none" xmlns="http://www.w3.org/2000/svg">
  <path
    d="M6.75699 0.767394H2.54216C2.14824 0.722684 1.74928 0.764438 1.37308 0.889523C1.16241 0.994714 0.992139 1.16611 0.888393 1.3775C0.764048 1.75233 0.722783 2.1498 0.767483 2.54219V6.75685C0.722783 7.14924 0.764048 7.5467 0.888393 7.92154C0.992139 8.13292 1.16241 8.30432 1.37308 8.40951C1.74928 8.5346 2.14824 8.57635 2.54216 8.53164H6.75699C7.15091 8.57635 7.54986 8.5346 7.92607 8.40951C8.13674 8.30432 8.30701 8.13292 8.41075 7.92154C8.5351 7.5467 8.57636 7.14924 8.53166 6.75685V2.54219C8.57636 2.1498 8.5351 1.75233 8.41075 1.3775C8.30701 1.16611 8.13674 0.994714 7.92607 0.889523C7.54986 0.764438 7.15091 0.722684 6.75699 0.767394Z"
    stroke="currentColor" stroke-linecap="round" stroke-linejoin="round" />
  <path
    d="M18.9578 0.767394H14.743C14.3491 0.722684 13.9501 0.764438 13.5739 0.889523C13.3633 0.994714 13.193 1.16611 13.0892 1.3775C12.9649 1.75233 12.9236 2.1498 12.9683 2.54219V6.75685C12.9236 7.14924 12.9649 7.5467 13.0892 7.92154C13.193 8.13292 13.3633 8.30432 13.5739 8.40951C13.9501 8.5346 14.3491 8.57635 14.743 8.53164H18.9578C19.3518 8.57635 19.7507 8.5346 20.1269 8.40951C20.3376 8.30432 20.5079 8.13292 20.6116 7.92154C20.736 7.5467 20.7772 7.14924 20.7325 6.75685V2.54219C20.7772 2.1498 20.736 1.75233 20.6116 1.3775C20.5079 1.16611 20.3376 0.994714 20.1269 0.889523C19.7507 0.764438 19.3518 0.722684 18.9578 0.767394Z"
    stroke="currentColor" stroke-linecap="round" stroke-linejoin="round" />
  <path
    d="M18.9578 12.9684H14.743C14.3491 12.9236 13.9501 12.9654 13.5739 13.0905C13.3633 13.1957 13.193 13.3671 13.0892 13.5785C12.9649 13.9533 12.9236 14.3508 12.9683 14.7432V18.9578C12.9236 19.3502 12.9649 19.7477 13.0892 20.1225C13.193 20.3339 13.3633 20.5053 13.5739 20.6105C13.9501 20.7356 14.3491 20.7773 14.743 20.7326H18.9578C19.3518 20.7773 19.7507 20.7356 20.1269 20.6105C20.3376 20.5053 20.5079 20.3339 20.6116 20.1225C20.736 19.7477 20.7772 19.3502 20.7325 18.9578V14.7432C20.7772 14.3508 20.736 13.9533 20.6116 13.5785C20.5079 13.3671 20.3376 13.1957 20.1269 13.0905C19.7507 12.9654 19.3518 12.9236 18.9578 12.9684Z"
    stroke="currentColor" stroke-linecap="round" stroke-linejoin="round" />
  <path
    d="M6.75699 12.9684H2.54216C2.14824 12.9236 1.74928 12.9654 1.37308 13.0905C1.16241 13.1957 0.992139 13.3671 0.888393 13.5785C0.764048 13.9533 0.722783 14.3508 0.767483 14.7432V18.9578C0.722783 19.3502 0.764048 19.7477 0.888393 20.1225C0.992139 20.3339 1.16241 20.5053 1.37308 20.6105C1.74928 20.7356 2.14824 20.7773 2.54216 20.7326H6.75699C7.15091 20.7773 7.54986 20.7356 7.92607 20.6105C8.13674 20.5053 8.30701 20.3339 8.41075 20.1225C8.5351 19.7477 8.57636 19.3502 8.53166 18.9578V14.7432C8.57636 14.3508 8.5351 13.9533 8.41075 13.5785C8.30701 13.3671 8.13674 13.1957 7.92607 13.0905C7.54986 12.9654 7.15091 12.9236 6.75699 12.9684Z"
    stroke="currentColor" stroke-linecap="round" stroke-linejoin="round" />
</svg>
