<svg width="21" height="22" viewBox="0 0 21 22" fill="none" xmlns="http://www.w3.org/2000/svg">
  <path
    d="M7.09417 20.7166V12.828C7.05174 12.4509 7.09088 12.069 7.20884 11.7088C7.30724 11.5056 7.46872 11.3408 7.66852 11.2397C8.02534 11.1195 8.40369 11.0795 8.77729 11.1224H11.7227C12.0963 11.0795 12.4747 11.1195 12.8315 11.2397C13.0313 11.3408 13.1928 11.5056 13.2912 11.7088C13.4091 12.069 13.4483 12.4509 13.4058 12.828V20.7166M9.217 1.27235L2.08165 6.90099C1.75249 7.12661 1.45431 7.39546 1.19488 7.70051C1.0406 7.90764 0.927039 8.14277 0.860366 8.39332C0.782554 8.78968 0.756377 9.19468 0.782517 9.59794V17.3054C0.698868 18.0632 0.777065 18.8303 1.01183 19.5547C1.21529 19.9535 1.5368 20.2778 1.93125 20.4821C2.64488 20.7224 3.40154 20.8024 4.14875 20.7166H16.3513C17.0985 20.8024 17.8551 20.7224 18.5688 20.4821C18.9632 20.2778 19.2847 19.9535 19.4882 19.5547C19.7229 18.8303 19.8011 18.0632 19.7175 17.3054V9.59794C19.7436 9.19468 19.7174 8.78968 19.6396 8.39332C19.573 8.14277 19.4594 7.90764 19.3051 7.70051C19.0457 7.39546 18.7475 7.12661 18.4183 6.90099L11.283 1.27235C11.0624 1.06258 10.8052 0.896322 10.5245 0.782019C10.3439 0.739327 10.1561 0.739327 9.97546 0.782019C9.69478 0.896322 9.43757 1.06258 9.217 1.27235Z"
    stroke="currentColor" stroke-linecap="round" stroke-linejoin="round" />
</svg>
