<svg width="20" height="20" viewBox="0 0 20 20" fill="none" xmlns="http://www.w3.org/2000/svg">
  <path
    d="M19 19L14.65 14.65M17 9C17 10.5823 16.5308 12.129 15.6517 13.4446C14.7727 14.7602 13.5233 15.7855 12.0614 16.391C10.5996 16.9965 8.9911 17.155 7.43926 16.8463C5.88741 16.5376 4.46195 15.7757 3.34313 14.6569C2.22431 13.538 1.46241 12.1125 1.15373 10.5607C0.845051 9.00882 1.00343 7.40029 1.60893 5.93848C2.21443 4.47667 3.23981 3.22732 4.55541 2.34827C5.871 1.46922 7.41774 1 8.99999 1C11.1217 1 13.1566 1.84285 14.6568 3.34314C16.1571 4.84343 17 6.87827 17 9Z"
    stroke="currentColor" stroke-linecap="round" stroke-linejoin="round" />
</svg>