<svg width="22" height="22" viewBox="0 0 22 22" fill="none" xmlns="http://www.w3.org/2000/svg">
  <path
    d="M21 11.9452C20.3878 13.0154 19.5371 13.9299 18.5138 14.6178C17.4906 15.3058 16.3225 15.7487 15.1003 15.9118C13.8782 16.0749 12.6349 15.954 11.4671 15.5585C10.2992 15.1629 9.23828 14.5034 8.36681 13.6312C7.49534 12.7589 6.83676 11.6975 6.44226 10.5293C6.04777 9.36114 5.92797 8.1179 6.0922 6.89592C6.25643 5.67394 6.70026 4.50631 7.38918 3.48375C8.07811 2.4612 8.99367 1.61121 10.0645 1C8.17289 1.18181 6.37189 1.89755 4.87157 3.06384C3.37126 4.23013 2.23342 5.79868 1.5907 7.58697C0.947988 9.37525 0.826862 11.3098 1.2415 13.1643C1.65614 15.0188 2.58949 16.717 3.93261 18.0613C5.27573 19.4056 6.97332 20.3402 8.82748 20.7565C10.6816 21.1728 12.6159 21.0535 14.4049 20.4124C16.1938 19.7714 17.7636 18.635 18.9313 17.1358C20.099 15.6366 20.8165 13.8365 21 11.9452Z"
    stroke="currentColor" stroke-linecap="round" stroke-linejoin="round" />
</svg>
