<svg width="22" height="22" viewBox="0 0 22 22" fill="none" xmlns="http://www.w3.org/2000/svg">
  <path
    d="M11 7V15M7 11H15M21 11C21 12.9778 20.4135 14.9112 19.3147 16.5557C18.2159 18.2002 16.6541 19.4819 14.8268 20.2388C12.9996 20.9956 10.9889 21.1937 9.04908 20.8079C7.10927 20.422 5.32748 19.4696 3.92896 18.071C2.53043 16.6725 1.578 14.8907 1.19214 12.9509C0.806291 11.0111 1.00436 9.00048 1.76123 7.17322C2.51811 5.34596 3.79979 3.78412 5.44428 2.6853C7.08877 1.58649 9.02219 1 11 1C13.6522 1 16.1957 2.05359 18.071 3.92896C19.9464 5.80432 21 8.34784 21 11Z"
    stroke="currentColor" stroke-linecap="round" stroke-linejoin="round" />
</svg>