<svg width="20" height="16" viewBox="0 0 20 16" fill="none" xmlns="http://www.w3.org/2000/svg">
  <path
    d="M10 3.33333C10 4.622 8.90106 5.66667 7.54545 5.66667C6.18985 5.66667 5.09091 4.622 5.09091 3.33333M10 3.33333C10 2.04467 8.90106 1 7.54545 1C6.18985 1 5.09091 2.04467 5.09091 3.33333M10 3.33333H19M5.09091 3.33333H1M16.5455 12.6667C16.5455 13.9553 15.4465 15 14.0909 15C12.7353 15 11.6364 13.9553 11.6364 12.6667M16.5455 12.6667C16.5455 11.378 15.4465 10.3333 14.0909 10.3333C12.7353 10.3333 11.6364 11.378 11.6364 12.6667M16.5455 12.6667H19M11.6364 12.6667H1"
    stroke="currentColor" stroke-linecap="round" stroke-linejoin="round" />
</svg>