<svg width="20" height="22" viewBox="0 0 20 22" fill="none" xmlns="http://www.w3.org/2000/svg">
  <path
    d="M18.7236 20.75C18.7918 19.7608 18.7277 18.767 18.5328 17.7944C18.3178 17.0944 17.9321 16.4577 17.4098 15.9403C16.8875 15.4229 16.2447 15.0409 15.538 14.8278C14.5562 14.6348 13.5529 14.5713 12.5542 14.6389H6.94575C5.94712 14.5713 4.94382 14.6348 3.962 14.8278C3.25534 15.0409 2.61253 15.4229 2.09022 15.9403C1.5679 16.4577 1.18223 17.0944 0.967152 17.7944C0.772331 18.767 0.708163 19.7608 0.776414 20.75M14.7976 5.75C14.7976 6.73891 14.5016 7.70567 13.9469 8.52792C13.3923 9.35016 12.604 9.99098 11.6816 10.3694C10.7593 10.7479 9.74437 10.8469 8.76523 10.654C7.78608 10.461 6.88667 9.98483 6.18075 9.28557C5.47482 8.5863 4.99407 7.69539 4.7993 6.72548C4.60454 5.75558 4.70453 4.75025 5.08657 3.83662C5.46862 2.92299 6.11554 2.1421 6.94562 1.5927C7.7757 1.04329 8.75167 0.750004 9.75 0.750004C10.4131 0.749127 11.0699 0.877867 11.6827 1.12883C12.2955 1.37979 12.8523 1.74807 13.3212 2.21254C13.7901 2.67701 14.1619 3.22851 14.4152 3.83553C14.6686 4.44256 14.7985 5.09315 14.7976 5.75Z"
    stroke="currentColor" stroke-linecap="round" stroke-linejoin="round" />
</svg>
